<svg width="1839" height="380" viewBox="0 0 1839 380" xmlns="http://www.w3.org/2000/svg" xmlns:xlink="http://www.w3.org/1999/xlink"><defs><linearGradient x1="41.136%" y1="146.154%" x2="140.558%" y2="126.434%" id="a"><stop stop-color="#062959" offset="0%"/><stop stop-color="#89AFE2" offset="100%"/></linearGradient><path id="b" d="M0 0h1839v380H0z"/></defs><g fill="none" fill-rule="evenodd"><path fill="url(#a)" d="M0 0h1839v380H0z"/><mask id="c" fill="#fff"><use xlink:href="#b"/></mask><g mask="url(#c)" fill="#DFFDF8"><path d="M1785.05 549.303C1865.14 527.365 1924 454.056 1924 367c0-104.382-84.62-189-189-189s-189 84.618-189 189c0 86.344 57.9 159.164 136.99 181.754-.02-.993 0-2.038.09-3.138.96-12.517 15.31-16.107 20.71-11.596.57.48.21 1.315-.53 1.448-12.94 2.345-9.88 13.495-3.48 17.257 4.3.809 8.64 1.473 13.03 1.987-.58-2.29-.8-4.971-.56-8.095.97-12.623 17.29-16.134 21.96-10.595.46.549-.01 1.287-.73 1.335-15.78 1.045-8.49 18.575.58 17.568v1.073l.41.001.53.001c2.45 0 4.9-.047 7.33-.14-.9-2.59-1.3-5.748-1-9.57.97-12.623 17.29-16.134 21.95-10.595.46.549-.01 1.287-.72 1.335-14.09.932-9.8 14.992-2.27 17.292 3.62-.483 7.2-1.069 10.75-1.753-.63-2.347-.89-5.113-.64-8.356.97-12.623 17.29-16.134 21.96-10.596.46.549-.01 1.288-.73 1.335-11 .728-10.79 9.463-6.58 14.351zm107.8-185.418c0 86.602-70.21 156.807-156.81 156.807-86.6 0-156.81-70.205-156.81-156.807 0-86.603 70.21-156.808 156.81-156.808 86.6 0 156.81 70.205 156.81 156.808zm-290.77-1.039c0 2.104.05 4.197.14 6.277 20.55-11.191 43.14-19.881 67.17-25.57l-9.24.494-.16-2.996 28.63-1.529a50.273 50.273 0 01-.42-4.626l-32.89 2.066-9.62-10.138 11.09-8.496 31.9 7.169c.22-1.543.52-3.062.88-4.555l-27.5-5.912.63-2.933 27.67 5.947a49.081 49.081 0 014.76-10.73l-24.7-18.582 1.8-2.397 24.51 18.439a50.747 50.747 0 012.79-3.73l-28.26-20.853-.84-13.946 13.96.625 21.29 27.928a50.402 50.402 0 013.68-2.858l-18.81-24.206 2.36-1.841 18.96 24.39a49.52 49.52 0 0115.17-6.186l-4.01-30.091 2.97-.396 3.99 29.917c1.52-.246 3.06-.423 4.63-.529l-4.91-34.383 9.34-10.384 9.35 10.384-4.94 34.564c1.56.169 3.09.41 4.61.719l4.03-30.288 2.98.396-4.08 30.587a49.59 49.59 0 0114.79 6.739l18.44-23.732 2.37 1.841-18.37 23.64c1.23.943 2.42 1.943 3.56 2.996l20.97-27.499 13.95-.625-.84 13.945-28.11 20.743c.94 1.238 1.82 2.52 2.64 3.844l24.51-18.442 1.8 2.397-24.8 18.66a49.195 49.195 0 014.28 10.779l28.26-6.075.63 2.933-28.21 6.063c.31 1.51.54 3.045.71 4.601l32.77-7.365 11.09 8.495-9.61 10.139-34.11-2.143c-.1 1.29-.25 2.567-.44 3.827 1.99.356 3.97.731 5.94 1.127l23.92 1.278-.16 2.996-7-.374c22.1 5.861 42.89 14.28 61.91 24.855.13-2.447.2-4.91.2-7.39 0-74.558-60.44-135-135-135s-135 60.442-135 135zm.81 24.796c44.38-28.557 159.81-68.512 266.3 0l1.62-2.523c-107.85-69.395-224.62-28.904-269.54 0l1.62 2.523zm3.11 14.539c44.4-28.563 153.6-68.509 260.07 0l1.63-2.523c-107.86-69.399-218.4-28.899-263.32 0l1.62 2.523zm5.2 15.577c44.4-28.572 144.25-68.503 250.72 0l1.62-2.523c-107.87-69.405-209.07-28.891-253.97 0l1.63 2.523zm7.27 14.538c22.22-14.3 55.18-31.414 95.87-36.404 40.64-4.986 89.1 2.118 142.39 36.404l1.62-2.523c-53.88-34.667-103.04-41.929-144.38-36.859-41.3 5.066-74.7 22.429-97.13 36.859l1.63 2.523zm185.07 1.268c-50.89-34.269-109.73-13.846-130.85 0 0 19.938 16.62 39.461 24.93 46.731h2.3c-.22-1.311-.29-2.789-.16-4.453.63-8.199 9.71-10.762 13.65-8.193.63.409.27 1.241-.46 1.401-7.8 1.712-6.27 8.45-2.42 11.245h9.12a19.407 19.407 0 01-.07-3.772c.64-8.298 11.04-10.803 14.59-7.552.53.485.07 1.226-.65 1.3-7.2.742-6.75 6.848-3.7 10.024h9.62c-.17-1.195-.21-2.522-.09-3.994.64-8.298 11.03-10.803 14.58-7.552.53.485.07 1.226-.64 1.299-7.38.761-6.74 7.143-3.48 10.247h10.8c-.16-1.195-.2-2.522-.09-3.994.64-8.298 11.04-10.803 14.59-7.552.53.485.06 1.226-.65 1.299-7.38.761-6.73 7.143-3.48 10.247h6.6s25.96-22.847 25.96-46.731zm-104.89-.103l3.5 10.764h11.32l-9.16 6.652 3.5 10.763-9.16-6.652-9.15 6.652 3.5-10.763-9.16-6.652h11.32l3.49-10.764zm42.96 2.456l-3.49-10.763-3.5 10.763h-11.32l9.16 6.652-3.5 10.764 9.16-6.653 9.15 6.653-3.5-10.764 9.16-6.652h-11.32zm35.97-2.456l3.49 10.764h11.32l-9.15 6.652 3.49 10.763-9.15-6.652-9.16 6.652 3.5-10.763-9.16-6.652h11.32l3.5-10.764z" opacity=".1"/><path d="M21.346 198.076C56.308 188.5 82 156.501 82 118.5 82 72.937 45.064 36-.5 36-46.063 36-83 72.937-83 118.5c0 37.69 25.274 69.476 59.798 79.337-.012-.433 0-.89.037-1.37.38-4.933 5.523-6.689 8.253-5.535.69.291.371 1.106-.346 1.318-4.587 1.359-3.248 5.773-.614 7.321 1.874.353 3.77.642 5.687.867-.253-1-.35-2.17-.246-3.534.386-5.023 6.342-6.741 8.934-5.173.614.372.188 1.107-.519 1.232-5.755 1.013-2.68 7.988 1.104 7.567v.469L-.5 201c1.071 0 2.138-.02 3.2-.061-.392-1.131-.567-2.509-.439-4.178.387-5.023 6.342-6.741 8.934-5.173.614.372.189 1.107-.518 1.232-5.108.9-3.26 6.493-.136 7.448a82.155 82.155 0 004.689-.766c-.275-1.024-.385-2.231-.276-3.647.386-5.024 6.342-6.741 8.933-5.173.615.371.189 1.107-.518 1.231-3.93.692-3.743 4.165-2.023 6.163zm47.055-80.936c0 37.803-30.645 68.448-68.448 68.448-37.802 0-68.448-30.645-68.448-68.448S-37.849 48.692-.047 48.692c37.803 0 68.448 30.645 68.448 68.448zm-126.923-.453c0 .918.021 1.832.063 2.74 7.825-4.261 16.324-7.692 25.33-10.146l-.158-2.952 12.442-.665a21.789 21.789 0 01-.082-1.178l-14.36.902-4.196-4.425 4.84-3.709 13.923 3.129c.057-.39.125-.778.202-1.163l-12-2.579.63-2.933 12.167 2.615a21.636 21.636 0 011.39-3.135l-10.868-8.177 1.804-2.397 10.678 8.034c.235-.32.48-.633.731-.938l-12.336-9.103-.368-6.087 6.092.273 9.293 12.19c.301-.257.61-.507.926-.747l-8.198-10.548 2.37-1.841 8.34 10.732a21.623 21.623 0 015.062-2.064l-1.763-13.226 2.973-.396 1.74 13.052c.392-.048.786-.086 1.184-.112l-2.144-15.009 4.08-4.533 4.08 4.533-2.156 15.087c.396.043.788.097 1.178.16l1.757-13.178 2.974.396L7.3 82.767a21.653 21.653 0 014.92 2.244l8.096-10.419 2.369 1.841L14.66 86.76c.306.253.604.514.896.782l9.15-12.003 6.092-.273-.368 6.087-12.271 9.055c.239.316.47.638.692.967l10.652-8.015 1.804 2.397-10.942 8.233a21.6 21.6 0 011.24 3.128l12.391-2.664.63 2.933-12.338 2.652c.063.389.115.781.158 1.177L36.75 98l4.842 3.708-4.196 4.425-14.89-.935c-.03.397-.07.791-.121 1.181l13.01.695-.15 2.831c8.524 2.498 16.573 5.876 24.002 10.007.058-1.068.087-2.143.087-3.225 0-32.545-26.383-58.929-58.928-58.929-32.546 0-58.929 26.384-58.929 58.929zm.812 11.534c19.222-12.368 69.233-29.657 115.327 0l1.623-2.523c-47.466-30.54-98.813-12.714-118.574 0l1.624 2.523zm1.36 6.346c19.23-12.373 66.518-29.653 112.607 0l1.623-2.522c-47.471-30.544-96.1-12.71-115.854 0l1.623 2.522zm2.266 6.8c19.244-12.382 62.448-29.648 108.528 0l1.623-2.523c-47.481-30.55-92.035-12.701-111.774 0l1.623 2.523zm3.173 6.346c9.645-6.206 23.91-13.606 41.494-15.763 17.547-2.152 38.5.904 61.594 15.763l1.624-2.523c-23.686-15.24-45.343-18.454-63.584-16.217-18.203 2.232-32.904 9.882-42.751 16.217l1.623 2.523zm80.329-.157c-22.212-14.959-47.899-6.044-57.116 0 0 8.703 7.253 17.225 10.88 20.398h1.005a7.92 7.92 0 01-.07-1.943c.235-3.071 3.188-4.331 5.108-3.919.732.158.46.934-.227 1.229-2.39 1.026-1.698 3.531-.178 4.633h3.978a8.248 8.248 0 01-.027-1.646c.243-3.154 3.716-4.391 5.632-3.721.678.237.303.947-.385 1.153-2.258.677-1.98 2.965-.778 4.214h4.198a8.141 8.141 0 01-.04-1.743c.242-3.154 3.715-4.391 5.632-3.721.678.237.302.947-.385 1.153-2.318.695-1.965 3.087-.681 4.311h4.716a8.145 8.145 0 01-.04-1.743c.243-3.154 3.716-4.391 5.633-3.721.678.237.302.947-.385 1.153-2.319.695-1.965 3.087-.681 4.311h2.878s11.333-9.973 11.333-20.398zm-45.783-.045l1.526 4.698h4.94l-3.996 2.904 1.526 4.698-3.996-2.903-3.997 2.903 1.527-4.698-3.997-2.904h4.94l1.527-4.698zm18.752 1.072L.86 143.885l-1.527 4.698h-4.94l3.997 2.904-1.527 4.698 3.997-2.904 3.997 2.904-1.527-4.698 3.997-2.904h-4.94zm15.698-1.072l1.527 4.698h4.94l-3.997 2.904 1.527 4.698-3.997-2.903-3.996 2.903 1.526-4.698-3.997-2.904h4.94l1.527-4.698z" opacity=".07"/></g><g transform="translate(275 9)" fill="#99CFEB"><circle transform="rotate(128.622 1047.25 327.562)" cx="1047.25" cy="327.562" r="1.602"/><circle transform="rotate(128.622 1069.75 304.529)" cx="1069.75" cy="304.529" r="1.602"/><circle transform="rotate(128.622 1060.68 325.302)" cx="1060.68" cy="325.302" r="1.068"/><circle transform="rotate(128.622 1105.74 361.301)" cx="1105.74" cy="361.301" r="1.068"/><circle transform="rotate(128.622 1123.22 320.59)" cx="1123.22" cy="320.59" r="1.068"/><circle transform="rotate(128.622 1181.39 256.335)" cx="1181.39" cy="256.335" r="2.136"/><circle transform="rotate(128.622 142.252 157.562)" cx="142.252" cy="157.562" r="1.602"/><circle transform="rotate(128.622 164.754 134.529)" cx="164.754" cy="134.529" r="1.602"/><circle transform="rotate(128.622 155.677 155.302)" cx="155.677" cy="155.302" r="1.068"/><circle transform="rotate(128.622 200.737 191.301)" cx="200.737" cy="191.301" r="1.068"/><circle transform="rotate(128.622 218.224 150.59)" cx="218.224" cy="150.59" r="1.068"/><circle transform="rotate(128.622 276.395 86.335)" cx="276.395" cy="86.335" r="2.136"/><circle transform="rotate(172.856 1.246 2.365)" cx="1.246" cy="2.365" r="1.116"/><circle transform="rotate(172.856 23.666 1.804)" cx="23.666" cy="1.804" r="1.116"/><circle transform="rotate(172.856 9.044 7.76)" cx="9.044" cy="7.76" r="1"/><circle transform="rotate(172.856 14.04 47.617)" cx="14.04" cy="47.617" r="1"/><circle transform="rotate(172.856 42.546 35.798)" cx="42.546" cy="35.798" r="1"/><circle transform="rotate(172.856 102.794 31.995)" cx="102.794" cy="31.995" r="1.488"/></g></g></svg>